<svg width="937" height="572" viewBox="0 0 937 572" fill="none" xmlns="http://www.w3.org/2000/svg">
<g clip-path="url(#clip0_433_150)">
<path d="M717.389 565.532C705.393 555.182 698.106 538.831 700.017 522.914C701.928 506.997 713.764 492.364 729.116 488.984C744.469 485.604 761.97 494.961 766.633 510.274C769.199 480.751 772.156 449.991 787.529 424.849C801.448 402.084 825.557 385.794 851.685 382.88C877.813 379.966 905.323 390.972 921.618 412.03C937.914 433.087 941.903 463.7 930.491 487.875C922.083 505.685 906.594 518.939 890.365 529.721C837.923 564.271 775.026 578.32 713.246 569.286L717.389 565.532Z" fill="#F2F2F2"/>
<path d="M895.781 391.582C874.222 409.512 854.444 429.566 836.732 451.453C809.014 485.588 786.585 523.86 770.225 564.936C769.027 567.932 773.792 569.237 774.977 566.274C801.745 499.517 844.477 440.679 899.266 395.14C901.726 393.095 898.221 389.553 895.781 391.582Z" fill="white"/>
<path d="M301.635 562.719C318.112 548.503 328.12 526.046 325.496 504.184C322.871 482.322 306.615 462.224 285.528 457.581C264.441 452.938 240.404 465.79 233.999 486.822C230.475 446.272 226.413 404.023 205.299 369.491C186.181 338.223 153.067 315.85 117.18 311.847C81.2929 307.844 43.5083 322.962 21.1267 351.884C-1.25482 380.806 -6.73485 422.853 8.9406 456.058C20.4882 480.519 41.7628 498.724 64.0534 513.534C135.168 560.783 223.386 580.489 307.326 567.875" fill="#F2F2F2"/>
<path d="M56.6149 323.8C86.2263 348.427 113.392 375.971 137.718 406.032C162.048 436.063 183.468 468.432 201.678 502.686C211.856 521.901 220.999 541.669 229.066 561.901C230.711 566.017 224.166 567.809 222.539 563.739C208.25 528.069 190.571 493.915 169.756 461.766C149.042 429.734 125.335 399.829 98.9655 372.472C84.051 357.006 68.315 342.389 51.8287 328.687C48.4495 325.877 53.2636 321.013 56.6149 323.8Z" fill="white"/>
<path d="M672.594 570.748H279.484V158.908C279.484 71.2855 349.299 0 435.112 0H516.966C602.779 0 672.594 71.2855 672.594 158.908V570.748Z" fill="#F2F2F2"/>
<path d="M590.741 570.748H279.484V158.908C279.398 125.333 289.811 92.6067 309.205 65.4939C309.92 64.4989 310.633 63.5168 311.369 62.5454C320.75 49.9824 331.913 38.9184 344.491 29.7185C345.202 29.1907 345.915 28.672 346.639 28.1533C357.164 20.7164 368.549 14.6369 380.535 10.0532C381.247 9.77772 381.971 9.50171 382.696 9.23698C393.536 5.28691 404.774 2.58114 416.2 1.16961C416.909 1.0708 417.636 0.993485 418.363 0.916164C429.498 -0.299529 440.729 -0.299529 451.864 0.916164C452.589 0.993485 453.317 1.07079 454.033 1.17067C465.457 2.58229 476.691 5.28773 487.529 9.23703C488.254 9.50176 488.978 9.77775 489.692 10.0538C501.531 14.5797 512.782 20.5684 523.194 27.8864C523.918 28.3938 524.642 28.9126 525.355 29.4313C532.405 34.5699 539.028 40.2947 545.154 46.5471C550.068 51.5622 554.646 56.9081 558.859 62.5487C559.592 63.5168 560.305 64.4989 561.019 65.4923C580.414 92.6055 590.827 125.332 590.741 158.908V570.748Z" fill="#CCCCCC"/>
<path d="M565.431 386.547C574.948 386.547 582.663 378.669 582.663 368.952C582.663 359.234 574.948 351.356 565.431 351.356C555.914 351.356 548.199 359.234 548.199 368.952C548.199 378.669 555.914 386.547 565.431 386.547Z" fill="#6C63FF"/>
<path d="M640.39 558.413H627.186L620.904 506.41L640.392 506.411L640.39 558.413Z" fill="#FFB8B8"/>
<path d="M617.754 554.56H643.219V570.931H601.721C601.721 568.781 602.135 566.653 602.941 564.666C603.747 562.68 604.928 560.875 606.417 559.355C607.906 557.835 609.673 556.629 611.618 555.806C613.564 554.983 615.649 554.56 617.754 554.56Z" fill="#2F2E41"/>
<path d="M706.088 558.413H692.884L686.602 506.41L706.09 506.411L706.088 558.413Z" fill="#FFB8B8"/>
<path d="M683.452 554.56H708.916V570.931H667.418C667.418 568.781 667.833 566.653 668.639 564.666C669.445 562.68 670.626 560.875 672.115 559.355C673.603 557.835 675.371 556.629 677.316 555.806C679.261 554.983 681.346 554.56 683.452 554.56Z" fill="#2F2E41"/>
<path d="M574.152 372.437C573.202 371.008 572.571 369.384 572.302 367.679C572.033 365.974 572.134 364.229 572.597 362.568C573.061 360.907 573.875 359.37 574.983 358.065C576.091 356.759 577.465 355.718 579.01 355.014L623.895 228.695L645.982 241.002L594.732 361.718C595.718 364.446 595.69 367.448 594.653 370.156C593.616 372.864 591.642 375.09 589.105 376.411C586.568 377.732 583.645 378.058 580.889 377.325C578.133 376.593 575.736 374.854 574.152 372.437Z" fill="#FFB8B8"/>
<path d="M699.343 396.174C697.876 395.315 696.611 394.137 695.637 392.725C694.663 391.313 694.005 389.7 693.708 388C693.411 386.299 693.482 384.553 693.918 382.884C694.353 381.215 695.141 379.664 696.227 378.34L682.322 244.715L707.457 245.888L713.236 377.325C715.294 379.336 716.558 382.047 716.789 384.945C717.02 387.843 716.201 390.727 714.489 393.05C712.776 395.374 710.289 396.975 707.497 397.55C704.706 398.126 701.804 397.636 699.343 396.174Z" fill="#FFB8B8"/>
<path d="M659.245 205.297C673.854 205.297 685.697 193.204 685.697 178.287C685.697 163.37 673.854 151.277 659.245 151.277C644.636 151.277 632.792 163.37 632.792 178.287C632.792 193.204 644.636 205.297 659.245 205.297Z" fill="#FFB8B8"/>
<path d="M699.174 365.783H619.425L619.521 365.149C619.664 364.202 633.734 270.092 623.357 239.303C622.316 236.278 622.407 232.966 623.614 230.005C624.821 227.044 627.057 224.644 629.894 223.266C644.726 216.134 673.198 207.352 697.229 228.664C700.765 231.852 703.526 235.836 705.294 240.302C707.063 244.767 707.789 249.591 707.417 254.393L699.174 365.783Z" fill="#6C63FF"/>
<path d="M634.741 284L598.837 276.562L615.667 235.84C616.674 231.896 619.172 228.521 622.613 226.455C626.054 224.389 630.158 223.801 634.023 224.82C637.888 225.839 641.2 228.381 643.231 231.89C645.263 235.398 645.849 239.587 644.86 243.536L634.741 284Z" fill="#6C63FF"/>
<path d="M680.726 297.81L678.567 247.288C676.93 237.79 682.255 228.812 690.444 227.345C698.635 225.883 706.633 232.47 708.277 242.037L716.39 289.245L680.726 297.81Z" fill="#6C63FF"/>
<path d="M696.521 359.734C709.353 409.635 710.753 473.081 707.291 542.286L690.059 540.086L658.825 408.121L641.593 542.286L622.207 541.186C616.415 468.573 610.776 406.235 620.053 365.233L696.521 359.734Z" fill="#2F2E41"/>
<path d="M676.675 199.161C671.74 204.529 662.575 201.648 661.932 194.315C661.882 193.746 661.886 193.173 661.943 192.604C662.275 189.356 664.113 186.407 663.673 182.978C663.573 182.124 663.262 181.311 662.768 180.615C658.836 175.238 649.604 183.019 645.893 178.152C643.617 175.167 646.293 170.468 644.546 167.132C642.241 162.73 635.414 164.901 631.133 162.49C626.37 159.808 626.655 152.345 629.79 147.806C633.614 142.271 640.319 139.317 646.94 138.891C653.561 138.466 660.137 140.293 666.318 142.753C673.341 145.548 680.306 149.41 684.628 155.716C689.884 163.384 690.39 173.694 687.761 182.66C686.162 188.115 680.705 194.778 676.675 199.161Z" fill="#2F2E41"/>
<path d="M904.67 571.456H109.519C109.179 571.455 108.854 571.316 108.614 571.071C108.375 570.825 108.24 570.493 108.24 570.146C108.24 569.8 108.375 569.467 108.614 569.222C108.854 568.976 109.179 568.838 109.519 568.837H904.67C905.009 568.838 905.335 568.976 905.574 569.222C905.814 569.467 905.948 569.8 905.948 570.146C905.948 570.493 905.814 570.825 905.574 571.071C905.335 571.316 905.009 571.455 904.67 571.456Z" fill="#3F3D56"/>
<path d="M505.119 451.43H365.107C363.263 451.44 361.491 450.703 360.178 449.38C358.866 448.057 358.121 446.257 358.106 444.375V125.273C358.121 123.391 358.866 121.59 360.178 120.268C361.491 118.945 363.263 118.208 365.107 118.218H505.119C506.962 118.208 508.735 118.945 510.047 120.268C511.36 121.59 512.105 123.391 512.119 125.273V444.375C512.105 446.257 511.36 448.057 510.047 449.38C508.735 450.703 506.962 451.44 505.119 451.43Z" fill="white"/>
<path d="M512.119 221.47H358.106V223.669H512.119V221.47Z" fill="#CCCCCC"/>
<path d="M512.657 346.958H358.645V349.157H512.657V346.958Z" fill="#CCCCCC"/>
<path d="M408.726 118.218H406.572V452.529H408.726V118.218Z" fill="#CCCCCC"/>
<path d="M462.576 118.218H460.422V452.529H462.576V118.218Z" fill="#CCCCCC"/>
</g>
<defs>
<clipPath id="clip0_433_150">
<rect width="937" height="572" fill="white"/>
</clipPath>
</defs>
</svg>
