<svg width="926" height="778" viewBox="0 0 926 778" fill="none" xmlns="http://www.w3.org/2000/svg">
<g clip-path="url(#clip0_452_244)">
<path d="M137.314 745.252L155.279 750.249L183.202 683.681L156.689 676.306L137.314 745.252Z" fill="#FFB8B8"/>
<path d="M185.263 776.486L128.801 760.779L134.9 739.074L171.731 749.319C176.937 750.768 181.352 754.215 184.005 758.902C186.657 763.589 187.329 769.133 185.874 774.313L185.263 776.486Z" fill="#2F2E41"/>
<path d="M351.614 759.251L370.269 759.249L379.139 687.658L351.608 687.66L351.614 759.251Z" fill="#FFB8B8"/>
<path d="M406.246 776.48L347.619 776.486L347.616 753.948L385.86 753.945C388.537 753.944 391.187 754.469 393.661 755.488C396.134 756.507 398.381 758.001 400.274 759.884C402.167 761.767 403.669 764.003 404.694 766.463C405.718 768.924 406.246 771.561 406.246 774.225L406.246 776.48Z" fill="#2F2E41"/>
<path d="M212.992 462.033L170.056 566.688L345.38 605.877L347.617 547.325L268.005 462.955L212.992 462.033Z" fill="#B3B3B3"/>
<path d="M308.117 299.001C327.538 288.437 334.676 264.209 324.059 244.885C313.442 225.561 289.092 218.459 269.67 229.023C250.249 239.586 243.111 263.814 253.728 283.138C264.344 302.462 288.695 309.564 308.117 299.001Z" fill="#FFB8B8"/>
<path d="M317.53 456.242L238.171 423.919L231.105 377.564C229.024 364.015 232.274 350.189 240.177 338.962C248.08 327.735 260.029 319.972 273.539 317.288L284.035 315.191C292.659 313.473 301.573 313.875 310.004 316.363C318.435 318.852 326.128 323.35 332.416 329.468C338.574 335.323 343.18 342.604 345.82 350.661C348.461 358.719 349.056 367.301 347.55 375.643C346.365 382.791 343.451 389.545 339.061 395.323C314.13 427.761 317.331 454.726 317.366 454.995L317.53 456.242Z" fill="#6C63FF"/>
<path d="M349.843 577.13L310.072 514.197L322.599 399.718L305.294 314.1L306.214 314.123C316.279 314.37 325.863 318.46 332.98 325.544C340.098 332.629 344.204 342.166 344.448 352.18L361.281 436.078L349.843 577.13Z" fill="#2F2E41"/>
<path d="M350.752 745.717C349.076 745.715 347.451 745.137 346.155 744.079C344.858 743.022 343.97 741.551 343.639 739.916L326.215 653.708C323.032 637.914 317.039 622.812 308.518 609.115L259.353 529.983C259.108 529.589 258.759 529.271 258.344 529.062C257.929 528.852 257.464 528.761 257 528.798C256.537 528.835 256.092 528.998 255.716 529.27C255.339 529.542 255.045 529.912 254.867 530.34L174.035 723.543C173.385 725.087 172.217 726.36 170.731 727.144C169.244 727.929 167.53 728.176 165.881 727.845L144.287 723.464C142.437 723.097 140.805 722.025 139.739 720.477C138.672 718.928 138.256 717.027 138.579 715.178L156.194 611.886C159.788 590.832 165.91 570.285 174.431 550.684L234.088 413.503L322.127 442.271L327.937 503.609L368.615 601.613C371.426 608.381 373.107 615.561 373.589 622.869L381.105 736.135C381.221 738.025 380.591 739.886 379.348 741.321C378.105 742.755 376.348 743.649 374.451 743.812L351.35 745.692C351.149 745.708 350.95 745.717 350.752 745.717Z" fill="#2F2E41"/>
<path d="M190.147 605.196L162.236 578.837L214.984 376.458C218.33 363.734 224.605 351.958 233.311 342.061C242.018 332.164 252.919 324.417 265.152 319.433L266.187 319.013L263.369 442.185L190.147 605.196Z" fill="#2F2E41"/>
<path d="M279.554 303.744C269.653 295.217 266.642 279.31 272.709 267.583C278.775 255.856 293.282 249.543 305.686 253.232C317.368 256.706 330.649 245.118 329.226 232.692C327.803 220.266 312.267 212.171 301.69 218.345C293.679 215.146 284.91 214.318 276.438 215.959C267.965 217.601 260.15 221.643 253.931 227.6C241.504 239.713 236.789 259.515 242.368 276.166C247.947 292.817 263.52 305.424 279.554 303.744Z" fill="#2F2E41"/>
<path d="M244.495 627.826C244.006 628.013 243.497 628.143 242.978 628.215L179.256 637.065C177.714 637.285 176.144 636.976 174.802 636.189C173.46 635.402 172.428 634.185 171.874 632.736L117.025 490.731C116.67 489.812 116.518 488.827 116.58 487.844C116.642 486.861 116.916 485.903 117.384 485.035C117.851 484.167 118.502 483.409 119.29 482.814C120.079 482.218 120.987 481.799 121.953 481.585L181.878 468.279C182.34 468.176 182.787 468.013 183.208 467.795L241.492 437.476C241.942 437.241 242.417 437.057 242.909 436.927L307.051 419.913C308.694 419.474 310.442 419.657 311.957 420.426C313.472 421.195 314.647 422.495 315.254 424.076L363.08 547.896C363.5 548.974 363.637 550.142 363.479 551.288C363.321 552.434 362.872 553.521 362.175 554.447L345.635 576.546C344.857 577.586 343.798 578.385 342.581 578.85L306.435 592.671C306.176 592.77 305.925 592.889 305.684 593.027L245.451 627.374C245.144 627.549 244.825 627.7 244.495 627.826Z" fill="white"/>
<path d="M274.142 438.843L265.997 441.005L244.412 446.733L244.373 446.742L214.822 462.116L203.855 467.822L203.85 467.824L187.379 476.392L186.927 476.493L169.817 480.29L161.547 482.129L127.818 489.618L180.768 626.705L215.525 621.879L224.047 620.693L242.212 618.167L242.423 618.14L300.791 584.856L336.304 571.276L352.518 549.613L306.427 430.281L274.142 438.843Z" fill="#E6E6E6"/>
<path d="M314.02 449.941L138.427 517.084L141.434 524.869L317.027 457.727L314.02 449.941Z" fill="white"/>
<path d="M324.043 475.892L148.45 543.035L151.457 550.82L327.05 483.677L324.043 475.892Z" fill="white"/>
<path d="M344.291 528.313L168.698 595.455L171.705 603.24L347.298 536.098L344.291 528.313Z" fill="white"/>
<path d="M274.141 438.843L326.711 574.944L318.887 577.937L265.996 441.006L274.141 438.843Z" fill="white"/>
<path d="M214.822 462.116L204.027 492L200.284 502.366L191.553 526.553L189.682 531.724L187.81 536.919L185.345 543.741L167.649 592.741L163.048 580.829L177.477 540.871L180.741 531.825L181.22 530.504L185.08 519.808L189.951 506.318L193.694 495.95L203.85 467.824L203.854 467.823L214.822 462.116Z" fill="white"/>
<path opacity="0.1" d="M302.063 584.369L300.79 584.856L242.422 618.141L242.211 618.168L186.926 476.493L187.379 476.392L203.85 467.824L203.854 467.823L214.822 462.116L244.374 446.742L244.412 446.733L302.063 584.369Z" fill="black"/>
<path d="M244.758 628.507C244.217 628.714 243.654 628.859 243.08 628.938L179.357 637.789C177.652 638.032 175.914 637.69 174.429 636.819C172.944 635.948 171.802 634.601 171.189 632.998L116.34 490.993C115.947 489.976 115.779 488.886 115.847 487.798C115.916 486.71 116.219 485.65 116.737 484.689C117.255 483.729 117.974 482.891 118.847 482.232C119.72 481.573 120.725 481.109 121.794 480.871L181.718 467.566C182.117 467.476 182.504 467.336 182.868 467.147L241.152 436.827C241.65 436.568 242.176 436.364 242.719 436.221L306.863 419.207C308.68 418.722 310.614 418.924 312.291 419.775C313.968 420.625 315.268 422.065 315.94 423.814L363.765 547.634C364.23 548.827 364.382 550.119 364.207 551.387C364.032 552.656 363.535 553.859 362.764 554.883L346.224 576.982C345.363 578.133 344.191 579.017 342.845 579.531L306.698 593.353C306.474 593.439 306.257 593.542 306.049 593.66L245.816 628.007C245.477 628.201 245.123 628.368 244.758 628.507ZM121.772 483.922C120.613 484.366 119.678 485.25 119.174 486.379C118.669 487.509 118.636 488.791 119.081 489.945L173.931 631.95C174.307 632.935 175.009 633.763 175.922 634.299C176.835 634.834 177.903 635.044 178.952 634.895L242.674 626.044C243.266 625.962 243.837 625.767 244.356 625.472L304.589 591.125C304.928 590.932 305.281 590.765 305.645 590.626L341.792 576.804C342.619 576.488 343.339 575.944 343.869 575.237L360.408 553.138C360.883 552.508 361.188 551.769 361.295 550.989C361.403 550.21 361.31 549.416 361.024 548.682L313.198 424.862C312.785 423.787 311.986 422.902 310.956 422.379C309.925 421.856 308.736 421.732 307.619 422.03L243.476 439.044C243.143 439.134 242.82 439.259 242.514 439.417L184.228 469.737C183.637 470.044 183.008 470.272 182.358 470.418L122.434 483.723C122.209 483.773 121.988 483.84 121.772 483.922Z" fill="#E6E6E6"/>
<path d="M169.817 480.29L224.047 620.693L215.525 621.878L161.546 482.129L169.817 480.29Z" fill="white"/>
<path d="M185.413 536.963C187.574 536.963 189.325 535.22 189.325 533.07C189.325 530.921 187.574 529.178 185.413 529.178C183.253 529.178 181.501 530.921 181.501 533.07C181.501 535.22 183.253 536.963 185.413 536.963Z" fill="#3F3D56"/>
<path d="M324.113 541.111C326.273 541.111 328.025 539.369 328.025 537.219C328.025 535.07 326.273 533.327 324.113 533.327C321.953 533.327 320.201 535.07 320.201 537.219C320.201 539.369 321.953 541.111 324.113 541.111Z" fill="#6C63FF"/>
<path d="M325.697 466.921C330.137 478.415 324.794 516.507 322.915 528.734C322.856 529.122 322.694 529.487 322.447 529.793C322.2 530.099 321.876 530.334 321.508 530.474C321.14 530.615 320.741 530.656 320.352 530.594C319.963 530.532 319.597 530.368 319.292 530.12C309.666 522.291 280.06 497.563 275.62 486.069C274.356 482.797 273.753 479.31 273.843 475.806C273.934 472.303 274.718 468.851 276.149 465.649C277.581 462.446 279.632 459.556 282.186 457.142C284.741 454.729 287.748 452.839 291.036 451.582C294.324 450.325 297.829 449.724 301.35 449.815C304.872 449.905 308.341 450.685 311.559 452.109C314.778 453.533 317.683 455.574 320.109 458.116C322.534 460.657 324.433 463.649 325.697 466.921Z" fill="#6C63FF"/>
<path d="M300.659 490.951C308.683 490.951 315.188 484.479 315.188 476.495C315.188 468.511 308.683 462.038 300.659 462.038C292.634 462.038 286.129 468.511 286.129 476.495C286.129 484.479 292.634 490.951 300.659 490.951Z" fill="white"/>
<path d="M281.995 445.302C282.583 443.154 283.637 441.161 285.083 439.463C286.529 437.765 288.331 436.403 290.363 435.473C292.396 434.543 294.608 434.067 296.845 434.08C299.082 434.093 301.288 434.594 303.31 435.547L329.248 412.218L347.341 424.443L310.246 456.876C308.412 460.149 305.435 462.638 301.879 463.873C298.323 465.107 294.436 465.001 290.953 463.574C287.471 462.148 284.636 459.499 282.985 456.132C281.333 452.764 280.981 448.91 281.995 445.302Z" fill="#FFB8B8"/>
<path d="M323.788 452.916L303.456 425.462L349.809 395.945L316.586 348.777C313.872 344.923 312.681 340.208 313.244 335.535C313.806 330.863 316.081 326.561 319.633 323.453C323.185 320.346 327.764 318.651 332.494 318.695C337.224 318.738 341.771 320.516 345.265 323.688L386.863 361.45C390.826 365.047 393.9 369.505 395.847 374.478C397.794 379.451 398.56 384.804 398.087 390.12C397.614 395.436 395.914 400.572 393.119 405.127C390.324 409.682 386.51 413.533 381.974 416.381L323.788 452.916Z" fill="#2F2E41"/>
<path d="M164.493 524.95C166.331 523.682 167.867 522.028 168.993 520.105C170.119 518.182 170.808 516.036 171.01 513.82C171.213 511.603 170.924 509.37 170.165 507.276C169.406 505.182 168.195 503.28 166.618 501.702L180.058 469.586L162.435 456.7L144.094 502.319C141.607 505.132 140.242 508.755 140.26 512.502C140.278 516.25 141.676 519.86 144.191 522.65C146.705 525.439 150.161 527.214 153.902 527.638C157.644 528.062 161.413 527.106 164.493 524.95Z" fill="#FFB8B8"/>
<path d="M173.574 492.341L141.788 484.976L165.475 417.016C169.557 405.29 175.579 394.324 183.292 384.573L221.935 335.68C225.469 331.208 230.641 328.312 236.317 327.626C241.993 326.94 247.711 328.52 252.218 332.021C256.725 335.521 259.655 340.657 260.364 346.302C261.073 351.947 259.505 357.642 256.003 362.139L213.123 417.203L173.574 492.341Z" fill="#2F2E41"/>
<path d="M560.935 778H1.46842C1.07897 778 0.705447 777.846 0.430065 777.572C0.154684 777.298 0 776.926 0 776.539C0 776.151 0.154684 775.78 0.430065 775.506C0.705447 775.232 1.07897 775.078 1.46842 775.078H560.935C561.324 775.078 561.698 775.232 561.973 775.506C562.248 775.78 562.403 776.151 562.403 776.539C562.403 776.926 562.248 777.298 561.973 777.572C561.698 777.846 561.324 778 560.935 778Z" fill="#CCCCCC"/>
<path d="M777.948 777.269H764.732V6.57465C764.732 4.83094 765.429 3.15866 766.668 1.92568C767.907 0.69269 769.588 0 771.34 0C773.093 0 774.774 0.69269 776.013 1.92568C777.252 3.15866 777.948 4.83094 777.948 6.57465V777.269Z" fill="#E6E6E6"/>
<path d="M873.707 778H668.129C667.74 778 667.366 777.846 667.091 777.572C666.815 777.298 666.661 776.926 666.661 776.539C666.661 776.151 666.815 775.78 667.091 775.506C667.366 775.232 667.74 775.078 668.129 775.078H873.707C874.097 775.078 874.47 775.232 874.746 775.506C875.021 775.78 875.176 776.151 875.176 776.539C875.176 776.926 875.021 777.298 874.746 777.572C874.47 777.846 874.097 778 873.707 778Z" fill="#CCCCCC"/>
<path d="M869.651 100.811H677.362C675.61 100.809 673.93 100.116 672.691 98.8833C671.453 97.6507 670.756 95.9796 670.754 94.2365V38.7172C670.756 36.9741 671.453 35.303 672.691 34.0704C673.93 32.8379 675.61 32.1445 677.362 32.1426H869.665C870.792 32.1433 871.9 32.4304 872.885 32.9765L922.612 60.5885C923.637 61.1576 924.492 61.9881 925.087 62.9945C925.682 64.001 925.998 65.1471 926 66.315C926.003 67.4829 925.693 68.6303 925.102 69.6394C924.511 70.6485 923.66 71.4827 922.638 72.0563L872.896 99.9636C871.905 100.518 870.788 100.81 869.651 100.811Z" fill="#6C63FF"/>
<path d="M852.103 220.616H659.814C658.677 220.615 657.56 220.323 656.569 219.768L606.827 191.861C605.805 191.287 604.954 190.453 604.363 189.444C603.772 188.435 603.462 187.288 603.465 186.12C603.467 184.952 603.783 183.806 604.378 182.799C604.974 181.793 605.828 180.962 606.853 180.393L656.58 152.781C657.565 152.235 658.673 151.948 659.8 151.947H852.103C853.855 151.949 855.535 152.643 856.774 153.875C858.012 155.108 858.709 156.779 858.711 158.522V214.041C858.709 215.784 858.012 217.455 856.774 218.688C855.535 219.921 853.855 220.614 852.103 220.616Z" fill="#E6E6E6"/>
<path d="M852.837 338.229H660.548C659.411 338.228 658.294 337.936 657.303 337.382L607.561 309.474C606.539 308.901 605.688 308.066 605.097 307.057C604.506 306.048 604.196 304.901 604.199 303.733C604.201 302.565 604.517 301.419 605.112 300.412C605.707 299.406 606.562 298.576 607.587 298.006L657.314 270.395C658.299 269.848 659.407 269.561 660.534 269.561H852.837C854.589 269.563 856.269 270.256 857.508 271.488C858.746 272.721 859.443 274.392 859.445 276.135V331.654C859.443 333.398 858.746 335.069 857.508 336.301C856.269 337.534 854.589 338.227 852.837 338.229Z" fill="#E6E6E6"/>
</g>
<defs>
<clipPath id="clip0_452_244">
<rect width="926" height="778" fill="white"/>
</clipPath>
</defs>
</svg>
