<svg width="237" height="25" viewBox="0 0 237 25" fill="none" xmlns="http://www.w3.org/2000/svg">
<path d="M27.7098 6.144L22.8778 24H16.8298L14.0138 12.416L11.1018 24H5.08575L0.22175 6.144H5.69375L8.22175 18.912L11.2298 6.144H17.0218L20.0618 18.848L22.5578 6.144H27.7098ZM37.9245 24.256C36.1752 24.256 34.5965 23.8827 33.1885 23.136C31.8018 22.3893 30.7032 21.3227 29.8925 19.936C29.1032 18.5493 28.7085 16.928 28.7085 15.072C28.7085 13.2373 29.1138 11.6267 29.9245 10.24C30.7352 8.832 31.8445 7.75467 33.2525 7.008C34.6605 6.26133 36.2392 5.888 37.9885 5.888C39.7378 5.888 41.3165 6.26133 42.7245 7.008C44.1325 7.75467 45.2418 8.832 46.0525 10.24C46.8632 11.6267 47.2685 13.2373 47.2685 15.072C47.2685 16.9067 46.8525 18.528 46.0205 19.936C45.2098 21.3227 44.0898 22.3893 42.6605 23.136C41.2525 23.8827 39.6738 24.256 37.9245 24.256ZM37.9245 19.52C38.9698 19.52 39.8552 19.136 40.5805 18.368C41.3272 17.6 41.7005 16.5013 41.7005 15.072C41.7005 13.6427 41.3378 12.544 40.6125 11.776C39.9085 11.008 39.0338 10.624 37.9885 10.624C36.9218 10.624 36.0365 11.008 35.3325 11.776C34.6285 12.5227 34.2765 13.6213 34.2765 15.072C34.2765 16.5013 34.6178 17.6 35.3005 18.368C36.0045 19.136 36.8792 19.52 37.9245 19.52ZM55.6435 9.12C56.2835 8.13867 57.0835 7.37067 58.0435 6.816C59.0035 6.24 60.0702 5.952 61.2435 5.952V11.744H59.7395C58.3742 11.744 57.3502 12.0427 56.6675 12.64C55.9848 13.216 55.6435 14.24 55.6435 15.712V24H50.1715V6.144H55.6435V9.12ZM74.771 24L69.331 16.512V24H63.859V0.32H69.331V13.408L74.739 6.144H81.491L74.067 15.104L81.555 24H74.771ZM100.76 8.768C100.76 10.0693 100.462 11.264 99.8643 12.352C99.2669 13.4187 98.3496 14.2827 97.1123 14.944C95.8749 15.6053 94.3389 15.936 92.5043 15.936H89.1123V24H83.6403V1.536H92.5043C94.2963 1.536 95.8109 1.84533 97.0483 2.464C98.2856 3.08267 99.2136 3.936 99.8323 5.024C100.451 6.112 100.76 7.36 100.76 8.768ZM92.0883 11.584C93.1336 11.584 93.9123 11.3387 94.4243 10.848C94.9363 10.3573 95.1923 9.664 95.1923 8.768C95.1923 7.872 94.9363 7.17867 94.4243 6.688C93.9123 6.19733 93.1336 5.952 92.0883 5.952H89.1123V11.584H92.0883ZM109.081 0.32V24H103.609V0.32H109.081ZM111.959 15.04C111.959 13.2053 112.3 11.5947 112.983 10.208C113.687 8.82133 114.636 7.75467 115.831 7.008C117.025 6.26133 118.359 5.888 119.831 5.888C121.089 5.888 122.188 6.144 123.127 6.656C124.087 7.168 124.823 7.84 125.335 8.672V6.144H130.807V24H125.335V21.472C124.801 22.304 124.055 22.976 123.095 23.488C122.156 24 121.057 24.256 119.799 24.256C118.348 24.256 117.025 23.8827 115.831 23.136C114.636 22.368 113.687 21.2907 112.983 19.904C112.3 18.496 111.959 16.8747 111.959 15.04ZM125.335 15.072C125.335 13.7067 124.951 12.6293 124.183 11.84C123.436 11.0507 122.519 10.656 121.431 10.656C120.343 10.656 119.415 11.0507 118.647 11.84C117.9 12.608 117.527 13.6747 117.527 15.04C117.527 16.4053 117.9 17.4933 118.647 18.304C119.415 19.0933 120.343 19.488 121.431 19.488C122.519 19.488 123.436 19.0933 124.183 18.304C124.951 17.5147 125.335 16.4373 125.335 15.072ZM133.677 15.072C133.677 13.216 134.051 11.5947 134.797 10.208C135.565 8.82133 136.621 7.75467 137.965 7.008C139.331 6.26133 140.888 5.888 142.637 5.888C144.877 5.888 146.744 6.47467 148.237 7.648C149.752 8.82133 150.744 10.4747 151.213 12.608H145.389C144.899 11.2427 143.949 10.56 142.541 10.56C141.539 10.56 140.739 10.9547 140.141 11.744C139.544 12.512 139.245 13.6213 139.245 15.072C139.245 16.5227 139.544 17.6427 140.141 18.432C140.739 19.2 141.539 19.584 142.541 19.584C143.949 19.584 144.899 18.9013 145.389 17.536H151.213C150.744 19.6267 149.752 21.2693 148.237 22.464C146.723 23.6587 144.856 24.256 142.637 24.256C140.888 24.256 139.331 23.8827 137.965 23.136C136.621 22.3893 135.565 21.3227 134.797 19.936C134.051 18.5493 133.677 16.928 133.677 15.072ZM170.972 14.784C170.972 15.296 170.94 15.8293 170.876 16.384H158.492C158.578 17.4933 158.93 18.3467 159.548 18.944C160.188 19.52 160.967 19.808 161.884 19.808C163.25 19.808 164.199 19.232 164.732 18.08H170.556C170.258 19.2533 169.714 20.3093 168.924 21.248C168.156 22.1867 167.186 22.9227 166.012 23.456C164.839 23.9893 163.527 24.256 162.076 24.256C160.327 24.256 158.77 23.8827 157.404 23.136C156.039 22.3893 154.972 21.3227 154.204 19.936C153.436 18.5493 153.052 16.928 153.052 15.072C153.052 13.216 153.426 11.5947 154.172 10.208C154.94 8.82133 156.007 7.75467 157.372 7.008C158.738 6.26133 160.306 5.888 162.076 5.888C163.804 5.888 165.34 6.25067 166.684 6.976C168.028 7.70133 169.074 8.736 169.82 10.08C170.588 11.424 170.972 12.992 170.972 14.784ZM165.372 13.344C165.372 12.4053 165.052 11.6587 164.412 11.104C163.772 10.5493 162.972 10.272 162.012 10.272C161.095 10.272 160.316 10.5387 159.676 11.072C159.058 11.6053 158.674 12.3627 158.524 13.344H165.372ZM190.979 8.768C190.979 10.0693 190.68 11.264 190.083 12.352C189.486 13.4187 188.568 14.2827 187.331 14.944C186.094 15.6053 184.558 15.936 182.723 15.936H179.331V24H173.859V1.536H182.723C184.515 1.536 186.03 1.84533 187.267 2.464C188.504 3.08267 189.432 3.936 190.051 5.024C190.67 6.112 190.979 7.36 190.979 8.768ZM182.307 11.584C183.352 11.584 184.131 11.3387 184.643 10.848C185.155 10.3573 185.411 9.664 185.411 8.768C185.411 7.872 185.155 7.17867 184.643 6.688C184.131 6.19733 183.352 5.952 182.307 5.952H179.331V11.584H182.307ZM207.812 20.032H199.428L198.084 24H192.356L200.484 1.536H206.82L214.948 24H209.156L207.812 20.032ZM206.404 15.808L203.62 7.584L200.868 15.808H206.404ZM236.686 1.536L228.91 16.576V24H223.438V16.576L215.662 1.536H221.87L226.222 10.944L230.542 1.536H236.686Z" fill="#040507"/>
</svg>
